IKResults
version=1
nRows=7
nColumns=63
inDegrees=yes

Units are S.I. units (second, meters, Newtons, ...)
If the header above contains a line with 'inDegrees', this indicates whether rotational values are in degrees (yes) or radians (no).

endheader
time	pelvis_tilt	pelvis_list	pelvis_rotation	pelvis_tx	pelvis_ty	pelvis_tz	hip_flexion_r	hip_adduction_r	hip_rotation_r	knee_angle_r	knee_angle_r_beta	ankle_angle_r	subtalar_angle_r	mtp_angle_r	hip_flexion_l	hip_adduction_l	hip_rotation_l	knee_angle_l	knee_angle_l_beta	ankle_angle_l	subtalar_angle_l	mtp_angle_l	L5_S1_Flex_Ext	L5_S1_Lat_Bending	L5_S1_axial_rotation	L4_L5_Flex_Ext	L4_L5_Lat_Bending	L4_L5_axial_rotation	L3_L4_Flex_Ext	L3_L4_Lat_Bending	L3_L4_axial_rotation	L2_L3_Flex_Ext	L2_L3_Lat_Bending	L2_L3_axial_rotation	L1_L2_Flex_Ext	L1_L2_Lat_Bending	L1_L2_axial_rotation	L1_T12_Flex_Ext	L1_T12_Lat_Bending	L1_T12_axial_rotation	Abs_r3	Abs_r2	Abs_r1	Abs_t1	Abs_t2	neck_flexion	neck_bending	neck_rotation	arm_flex_r	arm_add_r	arm_rot_r	elbow_flex_r	pro_sup_r	wrist_flex_r	wrist_dev_r	arm_flex_l	arm_add_l	arm_rot_l	elbow_flex_l	pro_sup_l	wrist_flex_l	wrist_dev_l
      6.03333333	     52.48119687	      9.35021521	      1.84683381	     -0.62584994	      0.33017627	     -0.27233070	     71.13501761	    -38.44380484	     -1.67896975	     91.11412185	      1.59024142	    -21.40609976	    -18.83279143	      0.00000000	     64.14428654	    -14.00122056	     -2.96861750	     88.03995069	      1.53658701	    -26.09226503	    -19.67442186	      0.00000000	    -10.96733604	     -0.77263395	     -0.37110121	    -20.36743977	     -1.02760315	     -0.39429503	    -18.01823639	     -1.87858218	     -0.39429503	    -12.53456836	     -1.87858218	     -0.32471356	    -10.18426825	     -1.57555514	     -0.30151973	     -6.26673582	     -1.19680998	     -0.27832591	    -78.33858462	     -8.74018972	     -2.06395359	      0.00000000	      0.00000000	     28.56353997	    -14.69547676	    -43.82818132	     15.79637413	    -18.59007457	    -28.91658528	     31.87546437	     89.99559364	      0.00000000	      0.00000000	     25.43942452	    -25.47718252	      1.78995086	     41.91684057	     89.99559364	      0.00000000	      0.00000000
      6.06666667	     51.62254678	      9.45079982	      1.95423984	     -0.62590447	      0.32857929	     -0.27289386	     72.31338892	    -38.73256892	     -1.73468025	     91.02592258	      1.58870205	    -22.00236018	    -18.90762559	      0.00000000	     65.12531428	    -13.77933194	     -3.01190846	     87.88451959	      1.53387423	    -26.51429413	    -19.67948808	      0.00000000	    -10.84522930	     -0.76936987	     -0.35945139	    -20.14067534	     -1.02326192	     -0.38191710	    -17.81762722	     -1.87064589	     -0.38191710	    -12.39501257	     -1.87064589	     -0.31451997	    -10.07087993	     -1.56889903	     -0.29205425	     -6.19696402	     -1.19175392	     -0.26958854	    -77.46638839	     -8.70326579	     -1.99916079	      0.00000000	      0.00000000	     28.56323358	    -14.89383321	    -43.83837017	     15.37672571	    -18.55560307	    -29.28772903	     32.21977111	     89.99559364	      0.00000000	      0.00000000	     25.67901555	    -25.29557322	      2.32984617	     41.08464232	     89.99559364	      0.00000000	      0.00000000
      6.10000000	     51.39695534	      9.42273903	      2.02956751	     -0.62681994	      0.32843726	     -0.27315617	     72.39801128	    -38.62260591	     -1.73009840	     90.84800018	      1.58559672	    -21.97885012	    -18.89483281	      0.00000000	     65.26761529	    -13.72467676	     -3.06793319	     87.58390940	      1.52862759	    -26.57317347	    -19.68009315	      0.00000000	    -10.82665857	     -0.76327577	     -0.38413848	    -20.10618763	     -1.01515678	     -0.40814714	    -17.78711737	     -1.85582871	     -0.40814714	    -12.37378808	     -1.85582871	     -0.33612117	    -10.05363515	     -1.55647195	     -0.31211252	     -6.18635271	     -1.18231417	     -0.28810386	    -77.33373951	     -8.63432818	     -2.13646301	      0.00000000	      0.00000000	     28.56341903	    -14.92051628	    -43.81933537	     15.44516340	    -18.55282318	    -29.32372989	     32.37314968	     89.99559364	      0.00000000	      0.00000000	     25.62953553	    -25.25467135	      2.44366800	     40.76449724	     89.99559364	      0.00000000	      0.00000000
      6.13333333	     51.06823099	      9.43611549	      2.22575402	     -0.62736340	      0.32807599	     -0.27363890	     72.66276217	    -38.49708664	     -1.51975729	     90.70656081	      1.58312814	    -22.04833591	    -18.91952640	      0.00000000	     65.61466573	    -13.47195216	     -3.00643823	     87.36139852	      1.52474404	    -26.85596304	    -19.68021349	      0.00000000	    -10.78858619	     -0.74767058	     -0.40756621	    -20.03548342	     -0.99440187	     -0.43303910	    -17.72456826	     -1.81788625	     -0.43303910	    -12.33027516	     -1.81788625	     -0.35662043	    -10.01828114	     -1.52464985	     -0.33114754	     -6.16459815	     -1.15814173	     -0.30567466	    -77.06179233	     -8.45779916	     -2.26676097	      0.00000000	      0.00000000	     28.56344579	    -15.05963096	    -43.82403414	     15.36118383	    -18.57086332	    -29.39215145	     32.56164438	     89.99559364	      0.00000000	      0.00000000	     25.77906977	    -25.12602190	      2.73632230	     39.96693985	     89.99559364	      0.00000000	      0.00000000
      6.16666667	     50.84152973	      9.47494341	      2.54083343	     -0.62719841	      0.32766139	     -0.27429021	     72.97706314	    -38.34265813	     -0.97741037	     90.79482041	      1.58466856	    -22.06816678	    -18.92715722	      0.00000000	     65.93144634	    -13.10506451	     -2.86506069	     87.30576066	      1.52377298	    -26.96479193	    -19.68598107	      0.00000000	    -10.75422915	     -0.71748882	     -0.41900354	    -19.97167896	     -0.95426013	     -0.44519126	    -17.66812307	     -1.74450232	     -0.44519126	    -12.29100850	     -1.74450232	     -0.36662810	     -9.98637719	     -1.46310320	     -0.34044038	     -6.14496654	     -1.11139018	     -0.31425266	    -76.81638340	     -8.11637703	     -2.33037201	      0.00000000	      0.00000000	     28.56308492	    -15.22226211	    -43.80372797	     15.01876873	    -18.65118031	    -29.48992133	     32.81720266	     89.99559364	      0.00000000	      0.00000000	     26.01183112	    -24.95842481	      3.40294939	     39.18015865	     89.99559364	      0.00000000	      0.00000000
      6.20000000	     50.83510630	      9.46140385	      2.55754383	     -0.62725600	      0.32764213	     -0.27428775	     72.97794016	    -38.32085674	     -0.95894536	     90.80819355	      1.58490197	    -22.05645386	    -18.86956565	      0.00000000	     65.93945253	    -13.11758150	     -2.87232605	     87.26438802	      1.52305089	    -26.93970877	    -19.67871065	      0.00000000	    -10.75526378	     -0.71524879	     -0.42435088	    -19.97360036	     -0.95128089	     -0.45087281	    -17.66982286	     -1.73905591	     -0.45087281	    -12.29219097	     -1.73905591	     -0.37130702	     -9.98733794	     -1.45853534	     -0.34478509	     -6.14555772	     -1.10792038	     -0.31826316	    -76.82377363	     -8.09103739	     -2.36011228	      0.00000000	      0.00000000	     28.56346747	    -15.22831571	    -43.75735948	     14.97726950	    -18.63450689	    -29.48854320	     32.82073031	     89.99559364	      0.00000000	      0.00000000	     25.95475698	    -24.96844546	      3.43597983	     39.12888086	     89.99559364	      0.00000000	      0.00000000
      6.23333333	     50.81825817	      9.44230120	      2.60027587	     -0.62715482	      0.32764341	     -0.27428693	     72.97593170	    -38.29870068	     -0.91934078	     90.82682721	      1.58522718	    -22.02563522	    -18.82034515	      0.00000000	     65.95955762	    -13.13481607	     -2.86031778	     87.23750645	      1.52258172	    -26.89678830	    -19.68707045	      0.00000000	    -10.75177540	     -0.71253286	     -0.43404219	    -19.96712210	     -0.94766870	     -0.46116983	    -17.66409181	     -1.73245239	     -0.46116983	    -12.28820411	     -1.73245239	     -0.37978692	     -9.98409864	     -1.45299700	     -0.35265928	     -6.14356446	     -1.10371339	     -0.32553164	    -76.79885651	     -8.06031418	     -2.41401244	      0.00000000	      0.00000000	     28.56365054	    -15.23371143	    -43.71993456	     14.95227612	    -18.61037904	    -29.47763052	     32.82950251	     89.99559364	      0.00000000	      0.00000000	     25.97561908	    -24.98372794	      3.46076260	     39.08363853	     89.99559364	      0.00000000	      0.00000000
